<?xml version="1.0" encoding="UTF-8" standalone="no"?>
<!-- Created with Inkscape (http://www.inkscape.org/) -->

<svg
   version="1.1"
   id="svg2"
   xml:space="preserve"
   width="405.3053"
   height="206.04643"
   viewBox="0 0 405.3053 206.04643"
   sodipodi:docname="bb37325812ead16c90fdcc70b456a928.ai"
   xmlns:inkscape="http://www.inkscape.org/namespaces/inkscape"
   xmlns:sodipodi="http://sodipodi.sourceforge.net/DTD/sodipodi-0.dtd"
   xmlns="http://www.w3.org/2000/svg"
   xmlns:svg="http://www.w3.org/2000/svg"><defs
     id="defs6"><clipPath
       clipPathUnits="userSpaceOnUse"
       id="clipPath16"><path
         d="M 0,425.197 H 425.197 V 0 H 0 Z"
         id="path14" /></clipPath></defs><sodipodi:namedview
     id="namedview4"
     pagecolor="#ffffff"
     bordercolor="#666666"
     borderopacity="1.0"
     inkscape:pageshadow="2"
     inkscape:pageopacity="0.0"
     inkscape:pagecheckerboard="0" /><g
     id="g8"
     inkscape:groupmode="layer"
     inkscape:label="bb37325812ead16c90fdcc70b456a928"
     transform="matrix(1.3333333,0,0,-1.3333333,-70.964831,391.73064)"><g
       id="g10"><g
         id="g12"
         clip-path="url(#clipPath16)"><g
           id="g18"
           transform="translate(184.1159,228.5826)"><path
             d="m 0,0 14.64,8.841 v 38.975 l -1.141,1.33 h 6.56 l -1.141,-1.33 V 1.426 L 20.059,0.095 H 14.64 V 7.89 L 0.381,-0.761 c -12.644,0 -18.443,7.986 -18.443,16.826 v 31.751 l -1.14,1.33 h 6.559 l -1.14,-1.33 V 17.491 C -13.403,7.7 -9.221,0 0,0"
             style="fill:#440b54;fill-opacity:1;fill-rule:nonzero;stroke:none"
             id="path20" /></g><g
           id="g22"
           transform="translate(234.5007,228.6773)"><path
             d="m 0,0 c 8.175,0 13.688,5.229 13.688,11.218 0,6.654 -4.847,12.453 -15.304,13.594 H -18.918 C -18.918,10.457 -12.738,0 0,0 M 18.822,25.571 C 18.632,39.546 13.023,49.147 0,49.147 c -13.023,0 -18.728,-9.601 -18.918,-23.576 z M 17.682,11.122 C 17.682,3.897 10.552,-0.761 0,-0.761 c -14.925,0 -23.671,10.363 -23.671,25.573 0,15.114 9.411,25.095 23.671,25.095 14.164,0 23.575,-9.981 23.575,-25.095 H 3.042 c 8.936,-2.092 14.64,-6.845 14.64,-13.69"
             style="fill:#440b54;fill-opacity:1;fill-rule:nonzero;stroke:none"
             id="path24" /></g><g
           id="g26"
           transform="translate(287.4518,228.6773)"><path
             d="m 0,0 c 8.175,0 13.688,5.229 13.688,11.218 0,6.654 -4.847,12.453 -15.304,13.594 H -18.918 C -18.918,10.457 -12.738,0 0,0 M 18.822,25.571 C 18.632,39.546 13.023,49.147 0,49.147 c -13.023,0 -18.728,-9.601 -18.918,-23.576 z M 17.682,11.122 C 17.682,3.897 10.552,-0.761 0,-0.761 c -14.925,0 -23.671,10.363 -23.671,25.573 0,15.114 9.411,25.095 23.671,25.095 14.164,0 23.575,-9.981 23.575,-25.095 H 3.042 c 8.936,-2.092 14.64,-6.845 14.64,-13.69"
             style="fill:#440b54;fill-opacity:1;fill-rule:nonzero;stroke:none"
             id="path28" /></g><g
           id="g30"
           transform="translate(337.7409,277.8248)"><path
             d="m 0,0 -14.64,-8.841 v -38.975 l 1.141,-1.331 h -6.559 l 1.141,1.331 v 46.39 l -1.141,1.33 h 5.418 V -7.891 L -0.38,0.76 c 12.644,0 18.442,-7.985 18.442,-16.825 v -31.751 l 1.141,-1.331 h -6.559 l 1.14,1.331 v 30.324 C 13.404,-7.7 9.222,0 0,0"
             style="fill:#440b54;fill-opacity:1;fill-rule:nonzero;stroke:none"
             id="path32" /></g><g
           id="g34"
           transform="translate(167.257,216.95)"><path
             d="m 0,0 c 0.054,0.783 -0.037,1.629 -0.215,2.466 -0.204,0.844 -0.553,1.677 -1.027,2.439 -0.493,0.748 -1.097,1.403 -1.755,1.945 -0.664,0.515 -1.366,0.964 -2.075,1.28 -1.422,0.678 -2.852,0.993 -4.239,1.192 -1.391,0.18 -2.75,0.214 -4.08,0.148 -2.664,-0.128 -5.206,-0.636 -7.68,-1.277 -2.471,-0.651 -4.873,-1.467 -7.21,-2.409 -9.341,-3.795 -17.748,-9.488 -24.942,-16.427 -3.523,-3.447 -6.884,-6.967 -10.174,-10.586 -3.281,-3.616 -6.463,-7.312 -9.58,-11.046 -6.249,-7.456 -12.175,-15.127 -18.434,-22.351 -0.583,-0.667 -1.19,-1.301 -1.781,-1.959 2.776,4.529 5.187,9.305 7.048,14.341 1.231,3.33 2.205,6.775 2.861,10.298 0.646,3.524 0.972,7.129 0.878,10.742 -0.036,1.805 -0.188,3.612 -0.439,5.404 -0.111,0.898 -0.284,1.788 -0.444,2.678 -0.192,0.885 -0.373,1.773 -0.612,2.646 -0.212,0.88 -0.492,1.742 -0.751,2.608 -0.294,0.855 -0.572,1.717 -0.91,2.554 l -0.945,2.409 c -0.304,0.783 -0.631,1.558 -0.912,2.347 -1.197,3.137 -2.244,6.316 -3.172,9.517 -0.924,3.202 -1.693,6.437 -2.232,9.695 -1.096,6.507 -1.306,13.117 -0.222,19.525 1.052,6.414 3.461,12.554 6.744,18.252 0.353,0.614 0.752,1.205 1.124,1.809 -0.243,-0.802 -0.502,-1.599 -0.731,-2.406 -1.865,-6.656 -3.287,-13.494 -3.681,-20.546 -0.188,-3.522 -0.115,-7.1 0.443,-10.684 0.555,-3.572 1.592,-7.174 3.414,-10.49 0.912,-1.652 2.019,-3.219 3.307,-4.63 1.287,-1.412 2.752,-2.662 4.33,-3.717 1.578,-1.051 3.259,-1.932 4.995,-2.607 1.734,-0.672 3.509,-1.196 5.331,-1.568 3.649,-0.696 7.444,-0.743 11.072,-0.076 1.815,0.321 3.594,0.787 5.318,1.377 1.72,0.6 3.385,1.314 4.996,2.115 1.615,0.795 3.159,1.701 4.657,2.66 1.5,0.958 2.945,1.985 4.336,3.067 2.794,2.156 5.39,4.515 7.843,6.99 4.902,4.959 9.235,10.377 13.19,16.022 1.977,2.824 3.859,5.709 5.649,8.65 0.895,1.472 1.767,2.956 2.616,4.457 0.424,0.751 0.842,1.506 1.254,2.267 0.415,0.769 0.81,1.511 1.224,2.334 0.395,0.792 0.385,1.769 -0.117,2.576 -0.768,1.238 -2.395,1.618 -3.632,0.849 l -0.026,-0.016 c -0.399,-0.249 -0.895,-0.536 -1.355,-0.799 -0.469,-0.268 -0.946,-0.529 -1.424,-0.79 -0.961,-0.514 -1.93,-1.019 -2.913,-1.499 -1.962,-0.967 -3.962,-1.865 -5.988,-2.688 -4.053,-1.642 -8.213,-3.012 -12.441,-3.962 -2.111,-0.491 -4.243,-0.847 -6.375,-1.102 -2.134,-0.27 -4.272,-0.362 -6.397,-0.348 l -1.592,0.037 -1.581,0.12 c -0.529,0.027 -1.05,0.105 -1.571,0.174 l -0.783,0.102 -0.392,0.051 -0.386,0.074 -1.544,0.296 c -0.513,0.103 -1.013,0.255 -1.52,0.379 l -0.759,0.194 c -0.249,0.074 -0.494,0.162 -0.742,0.242 -0.493,0.166 -0.991,0.32 -1.481,0.493 -3.862,1.468 -7.72,3.607 -10.088,6.462 -0.582,0.711 -1.06,1.46 -1.39,2.225 -0.315,0.767 -0.516,1.542 -0.529,2.315 -0.065,1.54 0.553,3.114 1.656,4.539 1.096,1.431 2.653,2.666 4.372,3.689 1.725,1.029 3.647,1.832 5.631,2.484 3.989,1.285 8.269,1.915 12.572,2.055 2.155,0.061 4.319,-0.002 6.483,-0.119 2.161,-0.121 4.355,-0.293 6.492,-0.554 2.141,-0.265 4.255,-0.638 6.249,-1.204 0.995,-0.282 1.96,-0.614 2.851,-1.015 0.884,-0.401 1.712,-0.867 2.349,-1.403 0.644,-0.534 1.077,-1.111 1.267,-1.678 0.187,-0.565 0.169,-1.207 -0.095,-1.953 -0.256,-0.739 -0.759,-1.517 -1.375,-2.243 -0.626,-0.725 -1.362,-1.415 -2.172,-2.04 -1.616,-1.26 -3.478,-2.302 -5.427,-3.146 -1.952,-0.846 -4.009,-1.48 -6.104,-1.906 -0.508,-0.111 -1.091,-0.188 -1.634,-0.3 -0.559,-0.116 -1.077,-0.201 -1.608,-0.282 -1.062,-0.158 -2.137,-0.255 -3.217,-0.3 -2.159,-0.091 -4.341,0.022 -6.494,0.336 -2.151,0.315 -4.284,0.827 -6.297,1.595 -0.998,0.393 -1.977,0.844 -2.845,1.407 -0.435,0.279 -0.845,0.586 -1.184,0.923 -0.336,0.334 -0.619,0.705 -0.721,1.044 -0.109,0.339 -0.089,0.621 0.117,0.947 0.199,0.322 0.566,0.637 0.986,0.898 0.847,0.535 1.895,0.886 2.939,1.179 2.114,0.572 4.34,0.861 6.565,1.067 2.229,0.197 4.474,0.284 6.721,0.317 2.248,0.033 4.5,0.009 6.751,-0.054 -4.484,0.416 -8.99,0.698 -13.522,0.581 -2.265,-0.073 -4.538,-0.224 -6.809,-0.692 -0.284,-0.055 -0.567,-0.121 -0.85,-0.197 -0.284,-0.067 -0.566,-0.155 -0.849,-0.242 -0.564,-0.182 -1.128,-0.393 -1.679,-0.698 -0.546,-0.303 -1.106,-0.679 -1.545,-1.289 -0.224,-0.295 -0.382,-0.679 -0.469,-1.075 -0.064,-0.403 -0.051,-0.823 0.056,-1.192 0.198,-0.754 0.618,-1.312 1.044,-1.794 0.434,-0.482 0.913,-0.877 1.405,-1.235 0.985,-0.718 2.036,-1.27 3.105,-1.761 2.146,-0.958 4.387,-1.625 6.667,-2.091 2.281,-0.462 4.606,-0.713 6.948,-0.745 1.17,-0.015 2.346,0.025 3.519,0.133 0.586,0.056 1.183,0.122 1.733,0.205 0.565,0.084 1.103,0.122 1.702,0.217 2.34,0.342 4.64,0.936 6.866,1.768 2.224,0.836 4.385,1.895 6.398,3.304 1.007,0.702 1.971,1.506 2.864,2.441 0.882,0.946 1.712,2.029 2.282,3.39 0.283,0.677 0.497,1.424 0.578,2.223 0.083,0.795 0.025,1.639 -0.186,2.436 -0.209,0.8 -0.568,1.536 -0.995,2.177 -0.43,0.638 -0.921,1.208 -1.444,1.68 -1.044,0.967 -2.175,1.656 -3.307,2.244 -1.136,0.581 -2.286,1.038 -3.437,1.429 -2.304,0.778 -4.618,1.299 -6.927,1.704 -2.314,0.405 -4.604,0.69 -6.936,0.841 -2.329,0.15 -4.672,0.151 -7.016,0.044 -4.684,-0.224 -9.404,-0.867 -13.993,-2.35 -2.289,-0.753 -4.55,-1.689 -6.697,-2.966 -2.135,-1.278 -4.199,-2.858 -5.859,-5.003 -0.82,-1.073 -1.552,-2.273 -2.042,-3.629 -0.257,-0.669 -0.432,-1.381 -0.567,-2.101 -0.107,-0.726 -0.183,-1.465 -0.147,-2.204 0.033,-1.481 0.405,-2.925 0.954,-4.231 0.561,-1.305 1.317,-2.464 2.158,-3.493 1.696,-2.059 3.721,-3.605 5.804,-4.902 1.047,-0.642 2.118,-1.212 3.2,-1.742 1.071,-0.531 2.216,-0.96 3.335,-1.424 0.57,-0.203 1.147,-0.384 1.721,-0.576 0.288,-0.092 0.574,-0.193 0.864,-0.278 l 0.876,-0.227 c 0.585,-0.145 1.166,-0.316 1.755,-0.436 l 1.772,-0.34 0.443,-0.084 0.446,-0.059 0.891,-0.118 c 0.594,-0.077 1.188,-0.164 1.783,-0.196 l 1.786,-0.134 1.784,-0.043 c 2.374,-0.018 4.744,0.089 7.078,0.383 2.336,0.279 4.652,0.668 6.926,1.197 4.558,1.025 8.978,2.483 13.268,4.221 1.517,0.616 2.995,1.317 4.477,2.01 -0.21,-0.352 -0.409,-0.709 -0.621,-1.059 -1.733,-2.847 -3.555,-5.641 -5.465,-8.368 -3.818,-5.45 -7.985,-10.652 -12.615,-15.334 -2.316,-2.336 -4.747,-4.543 -7.32,-6.527 -1.282,-0.999 -2.603,-1.936 -3.958,-2.802 -1.355,-0.866 -2.739,-1.678 -4.164,-2.379 -1.423,-0.707 -2.877,-1.329 -4.356,-1.847 -1.483,-0.505 -2.991,-0.898 -4.511,-1.168 -3.041,-0.56 -6.135,-0.509 -9.14,0.057 -1.499,0.307 -2.982,0.745 -4.407,1.296 -1.424,0.552 -2.758,1.26 -3.998,2.084 -2.48,1.649 -4.503,3.874 -5.949,6.507 -1.45,2.634 -2.338,5.637 -2.82,8.75 -0.488,3.116 -0.563,6.35 -0.389,9.59 0.359,6.493 1.698,13.01 3.489,19.392 0.905,3.193 1.933,6.359 3.067,9.487 0.567,1.565 1.163,3.119 1.782,4.661 0.312,0.77 0.629,1.537 0.953,2.299 0.322,0.753 0.663,1.535 0.988,2.235 l 0.01,0.022 c 0.477,1.03 0.247,2.292 -0.647,3.084 -1.091,0.967 -2.761,0.866 -3.728,-0.226 -4.607,-5.2 -8.944,-10.747 -12.483,-16.894 -3.535,-6.128 -6.211,-12.913 -7.373,-20.006 -0.594,-3.538 -0.841,-7.126 -0.781,-10.691 0.059,-3.566 0.42,-7.106 1.003,-10.589 0.577,-3.486 1.392,-6.91 2.362,-10.273 0.974,-3.361 2.069,-6.678 3.308,-9.926 0.293,-0.821 0.629,-1.62 0.944,-2.43 l 0.926,-2.363 c 0.304,-0.746 0.548,-1.513 0.812,-2.273 0.227,-0.77 0.479,-1.534 0.665,-2.316 0.214,-0.775 0.372,-1.562 0.544,-2.346 0.14,-0.791 0.296,-1.58 0.394,-2.377 0.223,-1.591 0.359,-3.196 0.39,-4.807 0.171,-6.448 -1.146,-12.931 -3.414,-19.083 -2.276,-6.163 -5.489,-12.017 -9.249,-17.5 -1.883,-2.742 -3.911,-5.392 -6.056,-7.943 -1.073,-1.274 -2.175,-2.524 -3.308,-3.74 -0.566,-0.609 -1.139,-1.209 -1.718,-1.797 l -0.874,-0.872 c -0.286,-0.28 -0.6,-0.582 -0.857,-0.819 l -0.02,-0.018 c -0.84,-0.774 -1.108,-2.036 -0.576,-3.111 0.646,-1.307 2.23,-1.843 3.537,-1.197 4.624,2.286 8.755,5.326 12.48,8.659 1.861,1.673 3.635,3.416 5.35,5.198 1.705,1.789 3.352,3.616 4.966,5.461 3.21,3.7 6.287,7.469 9.337,11.229 3.051,3.762 6.082,7.513 9.168,11.205 3.083,3.693 6.215,7.331 9.435,10.881 3.219,3.54 6.545,7.02 9.938,10.34 6.717,6.489 14.637,11.833 23.239,15.322 2.145,0.875 4.344,1.591 6.557,2.149 2.212,0.541 4.454,0.912 6.626,1.018 1.085,0.049 2.153,0.044 3.164,-0.066 1.007,-0.099 1.973,-0.299 2.757,-0.625 0.409,-0.15 0.734,-0.356 1.044,-0.555 0.287,-0.214 0.519,-0.445 0.716,-0.692 0.175,-0.26 0.323,-0.54 0.427,-0.868 0.08,-0.341 0.167,-0.704 0.153,-1.131 0.015,-0.835 -0.173,-1.803 -0.506,-2.779 -0.331,-0.98 -0.796,-1.971 -1.325,-2.947 -1.061,-1.958 -2.417,-3.847 -3.873,-5.668 -0.356,-0.459 -0.747,-0.907 -1.13,-1.358 l -1.151,-1.353 c -0.783,-0.888 -1.592,-1.757 -2.39,-2.636 -0.832,-0.847 -1.647,-1.712 -2.495,-2.547 l -1.282,-1.242 c -0.426,-0.416 -0.856,-0.828 -1.3,-1.225 -3.504,-3.231 -7.196,-6.283 -11.053,-9.132 -3.854,-2.852 -7.876,-5.493 -11.995,-7.982 -8.261,-4.937 -16.912,-9.309 -25.949,-12.778 4.639,1.392 9.177,3.118 13.654,4.988 4.474,1.879 8.881,3.94 13.184,6.211 8.602,4.543 16.875,9.825 24.419,16.126 3.772,3.151 7.344,6.549 10.652,10.253 1.658,1.876 3.244,3.852 4.607,6.085 0.679,1.118 1.311,2.293 1.823,3.582 C -0.47,-3.002 -0.07,-1.587 0,0"
             style="fill:#440b54;fill-opacity:1;fill-rule:nonzero;stroke:none"
             id="path36" /></g><g
           id="g38"
           transform="translate(224.612,218.6002)"><path
             d="m 0,0 0.119,-3.654 h -0.508 c -0.101,0.8 -0.326,1.461 -0.675,1.983 -0.351,0.524 -0.716,0.85 -1.098,0.98 -0.383,0.129 -1.027,0.194 -1.936,0.194 h -2.866 v -6.218 h 1.373 c 0.887,0 1.477,0.15 1.769,0.448 0.292,0.3 0.437,0.9 0.437,1.801 h 0.541 v -5.169 h -0.541 c 0,0.627 -0.062,1.123 -0.188,1.488 -0.127,0.363 -0.314,0.612 -0.563,0.746 -0.249,0.132 -0.733,0.2 -1.455,0.2 h -1.373 v -3.645 c 0,-1.153 0.029,-1.909 0.087,-2.265 0.058,-0.357 0.203,-0.622 0.438,-0.795 0.234,-0.173 0.686,-0.26 1.357,-0.26 h 0.497 v -0.497 h -6.812 v 0.497 h 0.454 c 0.627,0 1.061,0.08 1.303,0.238 0.242,0.158 0.396,0.406 0.465,0.74 0.069,0.336 0.103,1.117 0.103,2.342 v 7.192 c 0,1.167 -0.034,1.921 -0.103,2.259 -0.069,0.339 -0.213,0.574 -0.432,0.704 -0.22,0.129 -0.702,0.194 -1.444,0.194 h -0.26 V 0 Z"
             style="fill:#440b54;fill-opacity:1;fill-rule:nonzero;stroke:none"
             id="path40" /></g><g
           id="g42"
           transform="translate(244.6647,208.2515)"><path
             d="m 0,0 -0.107,-4.314 h -12.458 v 0.497 h 0.432 c 0.627,0 1.062,0.08 1.303,0.238 0.242,0.158 0.396,0.405 0.466,0.74 0.068,0.336 0.102,1.116 0.102,2.342 v 7.191 c 0,1.167 -0.034,1.921 -0.102,2.26 -0.07,0.339 -0.213,0.573 -0.433,0.703 -0.221,0.129 -0.701,0.195 -1.444,0.195 h -0.324 v 0.497 h 7.04 V 9.852 h -0.649 c -0.722,0 -1.193,-0.06 -1.417,-0.179 C -7.814,9.554 -7.964,9.332 -8.04,9.008 -8.115,8.684 -8.153,7.912 -8.153,6.694 v -7.677 c 0,-1.061 0.029,-1.724 0.087,-1.991 0.057,-0.266 0.213,-0.473 0.469,-0.622 0.256,-0.147 0.806,-0.221 1.65,-0.221 h 1.114 c 0.9,0 1.569,0.08 2.006,0.238 0.435,0.158 0.85,0.505 1.243,1.038 0.393,0.533 0.752,1.381 1.076,2.541 z"
             style="fill:#440b54;fill-opacity:1;fill-rule:nonzero;stroke:none"
             id="path44" /></g><g
           id="g46"
           transform="translate(254.6833,211.2906)"><path
             d="m 0,0 c 0,-2.357 0.471,-4.128 1.411,-5.31 0.942,-1.182 2.353,-1.773 4.235,-1.773 1.65,0 2.955,0.591 3.914,1.773 0.959,1.182 1.438,2.945 1.438,5.289 0,2.277 -0.473,4.024 -1.417,5.239 C 8.637,6.432 7.268,7.039 5.472,7.039 3.706,7.039 2.353,6.446 1.411,5.261 0.471,4.074 0,2.321 0,0 m -2.476,0.075 c 0,2.264 0.757,4.081 2.271,5.45 1.514,1.371 3.402,2.055 5.666,2.055 2.285,0 4.194,-0.678 5.727,-2.033 1.531,-1.356 2.297,-3.204 2.297,-5.547 0,-2.271 -0.734,-4.109 -2.201,-5.516 -1.467,-1.405 -3.397,-2.108 -5.79,-2.108 -2.329,0 -4.239,0.703 -5.731,2.108 -1.492,1.407 -2.239,3.27 -2.239,5.591"
             style="fill:#440b54;fill-opacity:1;fill-rule:nonzero;stroke:none"
             id="path48" /></g><g
           id="g50"
           transform="translate(290.5993,203.5806)"><path
             d="M 0,0 H -0.486 L -4.952,12.089 -8.856,0 h -0.519 l -3.536,11.419 c -0.318,1.038 -0.546,1.728 -0.687,2.07 -0.14,0.343 -0.324,0.595 -0.551,0.758 -0.227,0.162 -0.604,0.254 -1.13,0.275 v 0.498 h 5.504 v -0.498 c -0.663,-0.043 -1.089,-0.138 -1.276,-0.287 -0.187,-0.147 -0.281,-0.354 -0.281,-0.621 0,-0.238 0.151,-0.847 0.454,-1.828 l 2.617,-8.542 3.827,11.776 h 0.607 L 0.477,3.244 2.715,11.029 c 0.295,1.053 0.443,1.742 0.443,2.066 0,0.952 -0.509,1.427 -1.525,1.427 V 15.02 H 5.635 V 14.522 C 5.043,14.479 4.604,14.261 4.315,13.868 4.026,13.476 3.662,12.532 3.223,11.04 Z"
             style="fill:#440b54;fill-opacity:1;fill-rule:nonzero;stroke:none"
             id="path52" /></g><g
           id="g54"
           transform="translate(315.5954,208.5006)"><path
             d="M 0,0 H 0.519 L 0.205,-4.563 h -12.143 v 0.497 h 0.302 c 0.728,0 1.198,0.097 1.411,0.292 0.213,0.195 0.348,0.441 0.406,0.741 0.057,0.299 0.087,1.061 0.087,2.287 v 7.191 c 0,1.117 -0.032,1.853 -0.092,2.205 -0.062,0.354 -0.202,0.601 -0.422,0.742 -0.221,0.14 -0.684,0.211 -1.39,0.211 V 10.1 h 10.479 l 0.345,-3.655 h -0.507 c -0.232,1.024 -0.514,1.749 -0.85,2.179 -0.335,0.429 -0.733,0.699 -1.194,0.811 -0.462,0.112 -1.204,0.168 -2.228,0.168 H -7.624 V 3.449 h 1.558 c 0.712,0 1.212,0.062 1.497,0.184 0.285,0.123 0.472,0.308 0.562,0.557 0.09,0.248 0.135,0.734 0.135,1.455 h 0.509 V 0.627 h -0.509 c 0,0.814 -0.068,1.36 -0.205,1.639 -0.137,0.277 -0.337,0.457 -0.601,0.54 -0.262,0.083 -0.708,0.125 -1.335,0.125 h -1.611 v -3.472 c 0,-1.737 0.111,-2.759 0.335,-3.065 0.224,-0.307 0.825,-0.46 1.806,-0.46 h 1.092 c 0.772,0 1.406,0.099 1.904,0.297 0.497,0.199 0.97,0.606 1.422,1.222 C -0.615,-1.931 -0.26,-1.081 0,0"
             style="fill:#440b54;fill-opacity:1;fill-rule:nonzero;stroke:none"
             id="path56" /></g><g
           id="g58"
           transform="translate(328.4567,211.5064)"><path
             d="m 0,0 c 0.541,0.015 1.1,0.036 1.676,0.065 0.577,0.029 1.078,0.108 1.503,0.238 0.425,0.13 0.769,0.319 1.033,0.568 0.263,0.248 0.471,0.574 0.622,0.979 0.151,0.403 0.227,0.9 0.227,1.492 0,1.03 -0.258,1.856 -0.774,2.476 C 3.772,6.437 2.649,6.748 0.919,6.748 0.652,6.748 0.346,6.733 0,6.705 Z M 11.084,-7.569 H 7.137 c -0.7,0.49 -1.77,1.773 -3.211,3.849 -0.462,0.663 -0.942,1.3 -1.439,1.908 -0.498,0.61 -0.84,0.981 -1.027,1.115 -0.188,0.134 -0.48,0.2 -0.876,0.2 H 0 v -3.255 c 0,-1.153 0.027,-1.909 0.081,-2.266 0.054,-0.356 0.198,-0.622 0.433,-0.794 0.234,-0.173 0.682,-0.26 1.346,-0.26 h 0.703 v -0.497 h -7.018 v 0.497 h 0.476 c 0.626,0 1.061,0.08 1.302,0.238 0.242,0.158 0.396,0.405 0.46,0.74 0.065,0.336 0.098,1.116 0.098,2.342 v 7.191 c 0,1.167 -0.033,1.921 -0.098,2.26 -0.064,0.339 -0.209,0.573 -0.432,0.703 -0.224,0.129 -0.707,0.195 -1.45,0.195 h -0.248 v 0.497 l 2.098,0.108 C -0.851,7.267 0.26,7.3 1.081,7.3 2.479,7.3 3.617,7.17 4.493,6.91 5.369,6.65 6.077,6.226 6.618,5.634 7.158,5.043 7.429,4.337 7.429,3.515 7.429,2.556 7.075,1.737 6.369,1.06 5.663,0.382 4.624,-0.039 3.255,-0.205 c 0.612,-0.296 1.6,-1.362 2.963,-3.201 1.11,-1.492 1.982,-2.469 2.617,-2.931 0.634,-0.461 1.384,-0.706 2.249,-0.735 z"
             style="fill:#440b54;fill-opacity:1;fill-rule:nonzero;stroke:none"
             id="path60" /></g><g
           id="g62"
           transform="translate(347.5036,204.0885)"><path
             d="M 0,0 V 4.715 H 0.54 C 1.153,1.644 2.605,0.108 4.898,0.108 c 1.031,0 1.83,0.293 2.396,0.881 0.565,0.588 0.849,1.245 0.849,1.974 0,0.735 -0.249,1.351 -0.747,1.849 C 6.898,5.303 5.99,5.828 4.671,6.391 3.496,6.896 2.609,7.337 2.011,7.716 1.412,8.094 0.946,8.586 0.61,9.191 0.275,9.797 0.107,10.442 0.107,11.127 c 0,1.046 0.363,1.916 1.087,2.612 0.725,0.696 1.642,1.043 2.752,1.043 0.62,0 1.204,-0.1 1.752,-0.303 0.548,-0.202 1.111,-0.62 1.688,-1.253 0.331,0.395 0.518,0.825 0.561,1.286 H 8.424 V 10.673 H 7.947 C 7.674,11.79 7.188,12.67 6.493,13.312 5.798,13.953 4.992,14.274 4.076,14.274 3.204,14.274 2.564,14.038 2.157,13.565 1.75,13.094 1.546,12.576 1.546,12.014 1.546,11.336 1.802,10.763 2.313,10.295 2.818,9.818 3.73,9.285 5.05,8.694 6.312,8.132 7.229,7.68 7.802,7.337 8.375,6.994 8.834,6.521 9.181,5.915 9.526,5.31 9.699,4.61 9.699,3.817 9.699,2.563 9.281,1.543 8.445,0.757 7.608,-0.029 6.491,-0.422 5.093,-0.422 3.485,-0.422 2.145,0.194 1.07,1.428 0.832,1.089 0.655,0.612 0.54,0 Z"
             style="fill:#440b54;fill-opacity:1;fill-rule:nonzero;stroke:none"
             id="path64" /></g></g></g></g></svg>
